<svg xmlns="http://www.w3.org/2000/svg" viewBox="0 0 181.24 191.8"><defs><style>.cls-1,.cls-2,.cls-3{fill:#fff;}.cls-2{font-size:58.31px;}.cls-2,.cls-3{font-family:Impact;}.cls-3{font-size:38.87px;}</style></defs><g id="Layer_1" data-name="Layer 1"><path class="cls-1" d="M963.73,480c1.92-.84,3.51-2.09,5.15-2.14,6.89-.23,13.81,0,20.71-.15,3.35-.07,4.69,1.38,4.66,4.58A99.8,99.8,0,0,0,995,497.5c0-4.84,0-9.69,0-14.53s.54-5.25,5.46-5.25c.82,0,1.63,0,2.44,0,4.18.37,7.28,3.38,7.46,7.23s-2.7,7.06-6.89,7.74a4.8,4.8,0,0,0-2.68,1c1.9.28,3.82.46,5.69.85,4.18.88,6.67,3.8,6.58,7.54s-2.79,6.66-6.87,7.37a21.11,21.11,0,0,1-3.65.17H942c-5.45-.18-8.75-2.93-9-7.43-.2-4.65,3-7.88,8.76-8,9.61-.21,19.23-.08,28.84-.08h16.91l.09-.91a14.37,14.37,0,0,0-2.4-.42c-9.07,0-18.14,0-27.22,0-4.67,0-9.34.06-14,0-4.91-.09-8.26-3.23-8.32-7.6s3.29-7.3,8.38-7.46c1.08,0,2.17.09,3.25,0,3.41-.3,4.63,1.54,4.65,4.62a16.16,16.16,0,0,0,.43,4.46c.06-.78.17-1.54.18-2.32.07-6.42,2.69-8.45,8.87-6.55C962.63,478.27,963.49,479.73,963.73,480Zm9.39,24.56c9.62,0,19.24,0,28.86,0a12.21,12.21,0,0,0,4-.53c.72-.26,1.73-1.45,1.6-2a3.2,3.2,0,0,0-2-2c-2.52-.47-4.86-.55-6.89,2-2.35,2.92-5.76,2.95-8.08.16-1.74-2.09-3.65-2.45-6-2.39-2.84.07-5.69,0-8.53,0-11.38,0-22.76,0-34.14.12-1.18,0-2.33,1.25-3.5,1.91a22.93,22.93,0,0,0,3.45,2.67c.76.39,1.86.1,2.81.11Zm-25.63-19.7c-1.92-.87-3-1.79-3.94-1.66s-1.63,1.33-2.43,2.06c1.07.77,2.06,1.87,3.25,2.18C944.93,487.55,945.89,486.2,947.49,484.82Zm52.77,2,.82,1.05a17.74,17.74,0,0,0,3.43-2.19c.21-.2-.55-2-1.25-2.42s-1.92-.1-3-.1Zm-10.77-1.38c-1.24-1.13-1.84-2-2.63-2.24-.36-.1-1.58,1.13-1.55,1.71.05.85.86,1.66,1.35,2.48Zm-12.14,2.21h1.17c.36-.83,1-1.69,1-2.5s-.88-1.38-1.37-2.07c-.63.68-1.64,1.29-1.78,2.06S977,486.85,977.35,487.69Zm-19.12-4.76c-.44,4.67-.44,4.67,3,4Zm8.69,4.42c4,.58,3.73-1.36,3.33-4.11Z" transform="translate(-881.82 -429.71)"/><path class="cls-1" d="M972.91,460.23c-10.43,0-20.86,0-31.29,0-7.22,0-10.26-4.41-7.88-11.25,2-5.69,6.17-9.44,11.09-12.5A45.11,45.11,0,0,1,964,430.26c9.77-1.07,19.48-.77,28.89,2.46,1.9.65,4.92.93,4,4s-3.5,1.53-5.49.95c-12.83-3.73-25.63-3.87-38.3.63-5.61,2-10.43,5.2-13.51,10.49C937,453.15,938,455,942.94,455q30.07,0,60.15,0c4.95,0,5.91-1.45,3.56-5.74-1.09-2-3-3.53-4.11-5.49-.56-1-.29-2.39-.4-3.61,1.32,0,3.34-.45,3.84.21,2.48,3.28,5.24,6.62,6.64,10.4,1.92,5.23-1.54,9.41-7.2,9.47C994.59,460.3,983.75,460.23,972.91,460.23Z" transform="translate(-881.82 -429.71)"/><path class="cls-1" d="M947.22,468.12c4.24,3.49,8.65.8,13,.86,4.17.07,8.2.33,12.45.12s9,.1,13.5.07c4.1,0,8,.81,12.39-.18,2.44-.55,5.75,1.7,8.33,3.23,1.63,1,.65,3.63-1.39,3.9a5.44,5.44,0,0,1-3.47-.69c-2.18-1.47-3.92-1.27-6.34-.23a10.2,10.2,0,0,1-6.85,0c-2.05-.71-3.58-1.39-5.6,0-2.45,1.65-5,1.32-7.7.12a7.14,7.14,0,0,0-5.07,0,9.25,9.25,0,0,1-7.77,0,7.12,7.12,0,0,0-5.08,0c-2.71,1.19-5.23,1.62-7.7,0-2-1.33-3.64-1.14-5.6.06a7,7,0,0,1-3.83.85,2.78,2.78,0,0,1-1.92-1.73,2.7,2.7,0,0,1,.74-2.44C941.74,470.56,944.33,469.48,947.22,468.12Z" transform="translate(-881.82 -429.71)"/><path class="cls-1" d="M990.12,466.78c-4,0-8.11.21-12.13-.12-1.35-.11-2.59-1.6-3.87-2.46,1.28-.9,2.54-2.55,3.85-2.59,8.35-.22,16.72-.09,25.08-.05,1.9,0,3.91.5,3.46,2.77-.19,1-2.19,2.26-3.45,2.34C998.77,467,994.44,466.78,990.12,466.78Z" transform="translate(-881.82 -429.71)"/><path class="cls-1" d="M956,461.54c3.91,0,7.82,0,11.74,0,1.94,0,4.29.14,3.95,2.7-.13,1-2.42,2.42-3.76,2.45q-12.33.33-24.68,0c-1.34,0-3.63-1.43-3.75-2.42-.33-2.55,2-2.69,4-2.7C947.63,461.53,951.81,461.54,956,461.54Z" transform="translate(-881.82 -429.71)"/><path class="cls-1" d="M975.2,436.36c1.17,1.31,2.58,2.24,2.46,2.89-.19,1-1.4,1.85-2.18,2.77-.83-.84-2.1-1.56-2.35-2.54C973,438.81,974.2,437.77,975.2,436.36Z" transform="translate(-881.82 -429.71)"/><path class="cls-1" d="M973,446.35c-1.46,1.14-2.41,2.43-3.11,2.31a3.78,3.78,0,0,1-2.47-2.24c-.17-.55,1.28-2.25,2-2.24C970.39,444.19,971.38,445.3,973,446.35Z" transform="translate(-881.82 -429.71)"/><path class="cls-1" d="M944.22,453.78c-.93-1.68-2-2.74-1.91-3.71.06-.75,1.87-2.12,2.32-1.92a4.14,4.14,0,0,1,2.18,2.67C946.91,451.49,945.5,452.38,944.22,453.78Z" transform="translate(-881.82 -429.71)"/><path class="cls-1" d="M995,450.66c-1.79,1-2.83,2-3.81,2-.71,0-1.88-1.58-1.83-2.38s1.44-2.19,2.13-2.12C992.45,448.23,993.34,449.41,995,450.66Z" transform="translate(-881.82 -429.71)"/><path class="cls-1" d="M959.19,447.06c1.21,1.42,2.55,2.32,2.44,3-.15,1-1.34,1.84-2.09,2.74-.84-.69-2.32-1.35-2.36-2.09C957.13,449.75,958.21,448.72,959.19,447.06Z" transform="translate(-881.82 -429.71)"/><path class="cls-1" d="M965.22,441.93c-1.5,1.09-2.41,2.26-3.22,2.19s-1.65-1.3-2.48-2c.84-.85,1.56-2.11,2.55-2.38C962.71,439.54,963.75,440.83,965.22,441.93Z" transform="translate(-881.82 -429.71)"/><path class="cls-1" d="M989.49,442.49c-1.51,1.16-2.5,2.48-3.2,2.34-1-.21-1.78-1.47-2.66-2.28.81-.74,1.57-2,2.45-2.06S987.9,441.49,989.49,442.49Z" transform="translate(-881.82 -429.71)"/><path class="cls-1" d="M1003.46,448.33c-1.5,1-2.46,2.09-3.27,2s-1.59-1.35-2.38-2.1c.85-.84,1.6-2.11,2.6-2.35C1001,445.73,1002,447.13,1003.46,448.33Z" transform="translate(-881.82 -429.71)"/><path class="cls-1" d="M980.61,446.1c1.11,1.53,2.33,2.51,2.19,3.22-.19,1-1.42,1.75-2.2,2.61-.8-.75-2.23-1.51-2.22-2.25C978.39,448.7,979.53,447.73,980.61,446.1Z" transform="translate(-881.82 -429.71)"/><path class="cls-1" d="M954.35,443.88c-1.4,1.19-2.22,2.42-3.06,2.44s-1.78-1.13-2.67-1.78c.77-.9,1.38-2.25,2.35-2.57C951.63,441.74,952.77,442.93,954.35,443.88Z" transform="translate(-881.82 -429.71)"/></g><g id="Layer_3" data-name="Layer 3"><text class="cls-2" transform="translate(0 136.08)">BØRRES</text></g><g id="Layer_4" data-name="Layer 4"><text class="cls-3" transform="translate(21.31 178.95)">BURGERE</text></g></svg>