<svg xmlns="http://www.w3.org/2000/svg" viewBox="0 0 283.54 300.06"><defs><style>.cls-1,.cls-2,.cls-3{fill:#fff;}.cls-2{font-size:91.22px;}.cls-2,.cls-3{font-family:Impact;}.cls-3{font-size:60.81px;}</style></defs><g id="Layer_1" data-name="Layer 1"><path class="cls-1" d="M943.7,461.21c3-1.31,5.49-3.27,8-3.36,10.8-.35,21.61,0,32.41-.22,5.24-.11,7.33,2.16,7.29,7.17a155,155,0,0,0,1.12,23.86c0-7.58,0-15.16,0-22.74s.84-8.21,8.54-8.22c1.27,0,2.55,0,3.81.07,6.55.57,11.4,5.29,11.68,11.3s-4.22,11.05-10.78,12.11a7.55,7.55,0,0,0-4.2,1.58c3,.43,6,.7,8.91,1.32,6.53,1.38,10.43,5.95,10.29,11.8s-4.36,10.41-10.75,11.53a33.82,33.82,0,0,1-5.7.26q-46.08,0-92.16,0c-.85,0-1.7,0-2.55,0-8.52-.28-13.68-4.57-14-11.62-.32-7.27,4.75-12.33,13.7-12.53,15-.33,30.08-.12,45.13-.13H981l.13-1.41a20.41,20.41,0,0,0-3.74-.67c-14.2-.05-28.39,0-42.59,0-7.31,0-14.62.1-21.93,0-7.68-.14-12.93-5.05-13-11.88s5.15-11.42,13.1-11.67c1.7-.05,3.41.13,5.09,0,5.33-.47,7.25,2.41,7.28,7.22a25.55,25.55,0,0,0,.66,7c.1-1.21.28-2.41.29-3.62.12-10.05,4.21-13.23,13.88-10.25C942,458.56,943.31,460.84,943.7,461.21Zm14.69,38.42c15.05,0,30.1,0,45.15,0a19,19,0,0,0,6.21-.82c1.13-.41,2.71-2.27,2.5-3.06a5,5,0,0,0-3.09-3.2c-3.94-.73-7.59-.86-10.77,3.08-3.68,4.56-9,4.61-12.64.24-2.72-3.27-5.71-3.84-9.43-3.74-4.45.11-8.9,0-13.35,0-17.81,0-35.61-.06-53.41.18-1.84,0-3.65,1.95-5.48,3,1.79,1.42,3.42,3.13,5.41,4.17,1.17.61,2.91.16,4.39.16Zm-40.1-30.82c-3-1.36-4.69-2.79-6.16-2.6s-2.55,2.08-3.81,3.22c1.68,1.21,3.22,2.93,5.08,3.42C914.28,473.08,915.78,471,918.29,468.81Zm82.56,3.19,1.28,1.65c1.83-1.09,3.86-2,5.36-3.42.34-.33-.85-3.13-2-3.79s-3-.16-4.69-.16ZM984,469.84c-1.94-1.75-2.88-3.14-4.13-3.5-.55-.16-2.46,1.76-2.41,2.67.07,1.33,1.34,2.6,2.11,3.89Zm-19,3.46h1.83c.57-1.31,1.64-2.65,1.57-3.93,0-1.11-1.38-2.15-2.15-3.23-1,1.07-2.56,2-2.78,3.23S964.43,472,965,473.3Zm-29.9-7.44c-.7,7.3-.7,7.3,4.73,6.21Zm13.58,6.91c6.31.91,5.84-2.13,5.21-6.43Z" transform="translate(-815.55 -382.59)"/><path class="cls-1" d="M958.06,430.34c-16.32,0-32.64.05-49,0-11.29,0-16-6.9-12.32-17.6,3.09-8.9,9.66-14.77,17.35-19.55,9.17-5.7,19.35-8.55,30-9.72,15.28-1.68,30.47-1.2,45.19,3.84,3,1,7.71,1.46,6.18,6.26s-5.47,2.39-8.58,1.49c-20.08-5.84-40.09-6.06-59.91,1-8.79,3.12-16.33,8.15-21.14,16.42-4,6.82-2.34,9.66,5.33,9.66q47.05,0,94.1,0c7.74,0,9.25-2.27,5.56-9-1.7-3.1-4.62-5.52-6.42-8.58-.88-1.49-.45-3.74-.62-5.64,2.06.06,5.22-.71,6,.32,3.89,5.14,8.2,10.36,10.38,16.28,3,8.17-2.41,14.72-11.25,14.8C992,430.45,975,430.34,958.06,430.34Z" transform="translate(-815.55 -382.59)"/><path class="cls-1" d="M917.87,442.69c6.64,5.45,13.53,1.25,20.35,1.35,6.52.1,12.83.5,19.47.18,6.87-.34,14,.15,21.13.11,6.41-.05,12.57,1.26,19.38-.28,3.81-.87,9,2.65,13,5.06,2.54,1.5,1,5.67-2.19,6.09a8.52,8.52,0,0,1-5.43-1.07c-3.4-2.3-6.13-2-9.92-.36-3.05,1.32-7.46,1.07-10.71-.06s-5.6-2.18-8.75-.06c-3.84,2.59-7.79,2.07-12,.19a11.17,11.17,0,0,0-7.93,0,14.48,14.48,0,0,1-12.16,0,11.07,11.07,0,0,0-8-.06c-4.24,1.85-8.18,2.53-12-.05-3.13-2.08-5.69-1.78-8.76.11a10.92,10.92,0,0,1-6,1.32,4.35,4.35,0,0,1-3-2.71c-.32-1.11.27-3.31,1.16-3.81C909.3,446.5,913.34,444.81,917.87,442.69Z" transform="translate(-815.55 -382.59)"/><path class="cls-1" d="M985,440.59c-6.33,0-12.68.33-19-.18-2.12-.18-4-2.51-6.07-3.86,2-1.41,4-4,6-4.05,13.07-.34,26.16-.14,39.24-.08,3,0,6.12.78,5.42,4.34-.31,1.57-3.44,3.53-5.4,3.66C998.51,440.87,991.74,440.59,985,440.59Z" transform="translate(-815.55 -382.59)"/><path class="cls-1" d="M931.59,432.4c6.12,0,12.24,0,18.36,0,3,0,6.71.22,6.19,4.22-.21,1.57-3.79,3.79-5.89,3.84q-19.29.51-38.61-.05c-2.09-.06-5.67-2.24-5.87-3.78-.51-4,3.13-4.22,6.19-4.23C918.5,432.37,925.05,432.4,931.59,432.4Z" transform="translate(-815.55 -382.59)"/><path class="cls-1" d="M961.64,393c1.84,2.05,4,3.5,3.84,4.52-.29,1.6-2.18,2.9-3.4,4.33-1.3-1.3-3.29-2.43-3.69-4C958.13,396.83,960.08,395.21,961.64,393Z" transform="translate(-815.55 -382.59)"/><path class="cls-1" d="M958.18,408.63c-2.28,1.79-3.78,3.81-4.87,3.61a5.9,5.9,0,0,1-3.86-3.51c-.26-.85,2-3.51,3.11-3.5C954.12,405.25,955.66,407,958.18,408.63Z" transform="translate(-815.55 -382.59)"/><path class="cls-1" d="M913.17,420.25c-1.46-2.62-3.11-4.28-3-5.79.09-1.18,2.94-3.33,3.63-3a6.44,6.44,0,0,1,3.41,4.17C917.38,416.66,915.18,418.07,913.17,420.25Z" transform="translate(-815.55 -382.59)"/><path class="cls-1" d="M992.57,415.38c-2.8,1.56-4.43,3.19-6,3.09-1.11-.06-2.94-2.47-2.86-3.73s2.25-3.42,3.33-3.31C988.63,411.58,990,413.42,992.57,415.38Z" transform="translate(-815.55 -382.59)"/><path class="cls-1" d="M936.59,409.75c1.89,2.21,4,3.63,3.82,4.71-.23,1.56-2.1,2.88-3.28,4.3-1.31-1.09-3.62-2.13-3.68-3.28C933.38,414,935.06,412.34,936.59,409.75Z" transform="translate(-815.55 -382.59)"/><path class="cls-1" d="M946,401.71c-2.34,1.7-3.77,3.54-5,3.44s-2.6-2-3.88-3.17c1.3-1.32,2.43-3.3,4-3.72C942.1,398,943.72,400,946,401.71Z" transform="translate(-815.55 -382.59)"/><path class="cls-1" d="M984,402.59c-2.36,1.82-3.91,3.88-5,3.66-1.57-.32-2.79-2.3-4.16-3.57,1.27-1.15,2.46-3.08,3.83-3.22S981.5,401,984,402.59Z" transform="translate(-815.55 -382.59)"/><path class="cls-1" d="M1005.84,411.73c-2.34,1.53-3.84,3.27-5.1,3.11s-2.49-2.12-3.72-3.29c1.33-1.3,2.5-3.3,4.05-3.66C1002.06,407.65,1003.62,409.84,1005.84,411.73Z" transform="translate(-815.55 -382.59)"/><path class="cls-1" d="M970.11,408.23c1.72,2.41,3.64,3.94,3.42,5-.3,1.53-2.22,2.74-3.45,4.09-1.24-1.18-3.48-2.37-3.47-3.53C966.63,412.3,968.41,410.78,970.11,408.23Z" transform="translate(-815.55 -382.59)"/><path class="cls-1" d="M929,404.77c-2.21,1.86-3.48,3.79-4.79,3.81s-2.78-1.77-4.18-2.77c1.2-1.43,2.16-3.53,3.67-4C924.76,401.43,926.55,403.28,929,404.77Z" transform="translate(-815.55 -382.59)"/></g><g id="Layer_3" data-name="Layer 3"><text class="cls-2" transform="translate(0 212.89)">BØRRES</text></g><g id="Layer_4" data-name="Layer 4"><text class="cls-3" transform="translate(33.33 279.95)">BURGERE</text></g></svg>